<svg width="341" height="160" viewBox="0 0 341 160" fill="none" xmlns="http://www.w3.org/2000/svg">
<path d="M46.592 39.424C46.9333 38.7413 47.5733 38.4 48.512 38.4H63.36C63.7867 38.4 64.128 38.5707 64.384 38.912C64.7253 39.168 64.896 39.5093 64.896 39.936V126.464C64.896 126.891 64.7253 127.275 64.384 127.616C64.128 127.872 63.7867 128 63.36 128H48.384C47.9573 128 47.5733 127.872 47.232 127.616C46.976 127.275 46.848 126.891 46.848 126.464V68.992C46.848 68.6507 46.7627 68.48 46.592 68.48C46.4213 68.48 46.2507 68.608 46.08 68.864L36.096 86.528C35.6693 87.2107 35.328 87.552 35.072 87.552C34.816 87.552 34.4747 87.2107 34.048 86.528L24.064 68.864C23.8933 68.608 23.7227 68.48 23.552 68.48C23.3813 68.48 23.296 68.6507 23.296 68.992V126.464C23.296 126.891 23.1253 127.275 22.784 127.616C22.528 127.872 22.1867 128 21.76 128H6.784C6.35733 128 5.97333 127.872 5.632 127.616C5.376 127.275 5.248 126.891 5.248 126.464V39.936C5.248 39.5093 5.376 39.168 5.632 38.912C5.97333 38.5707 6.35733 38.4 6.784 38.4H21.504C22.3573 38.4 22.9973 38.7413 23.424 39.424L34.816 59.776C35.072 60.1173 35.328 60.1173 35.584 59.776L46.592 39.424ZM113.389 128C112.365 128 111.81 127.531 111.725 126.592L109.677 114.304C109.677 113.877 109.421 113.664 108.909 113.664H92.653C92.141 113.664 91.885 113.877 91.885 114.304L89.837 126.592C89.7517 127.531 89.197 128 88.173 128H73.197C72.0877 128 71.661 127.445 71.917 126.336L90.733 39.808C90.9037 38.8693 91.4583 38.4 92.397 38.4H109.677C110.616 38.4 111.17 38.8693 111.341 39.808L130.029 126.336L130.157 126.848C130.157 127.616 129.688 128 128.749 128H113.389ZM94.445 99.072C94.445 99.4987 94.6157 99.712 94.957 99.712H106.477C106.904 99.712 107.074 99.4987 106.989 99.072L100.973 64.128C100.888 63.872 100.76 63.744 100.589 63.744C100.418 63.744 100.29 63.872 100.205 64.128L94.445 99.072ZM179.671 38.4C180.098 38.4 180.439 38.5707 180.695 38.912C181.036 39.168 181.207 39.5093 181.207 39.936V52.352C181.207 52.7787 181.036 53.1627 180.695 53.504C180.439 53.76 180.098 53.888 179.671 53.888H163.671C163.244 53.888 163.031 54.1013 163.031 54.528V126.464C163.031 126.891 162.86 127.275 162.519 127.616C162.263 127.872 161.922 128 161.495 128H146.519C146.092 128 145.708 127.872 145.367 127.616C145.111 127.275 144.983 126.891 144.983 126.464V54.528C144.983 54.1013 144.77 53.888 144.343 53.888H128.983C128.556 53.888 128.172 53.76 127.831 53.504C127.575 53.1627 127.447 52.7787 127.447 52.352V39.936C127.447 39.5093 127.575 39.168 127.831 38.912C128.172 38.5707 128.556 38.4 128.983 38.4H179.671ZM225.21 128C224.271 128 223.674 127.573 223.418 126.72L213.562 91.392C213.391 91.0507 213.178 90.88 212.922 90.88H208.57C208.143 90.88 207.93 91.0933 207.93 91.52V126.464C207.93 126.891 207.759 127.275 207.418 127.616C207.162 127.872 206.821 128 206.394 128H191.418C190.991 128 190.607 127.872 190.266 127.616C190.01 127.275 189.882 126.891 189.882 126.464V39.936C189.882 39.5093 190.01 39.168 190.266 38.912C190.607 38.5707 190.991 38.4 191.418 38.4H217.274C221.967 38.4 226.149 39.552 229.818 41.856C233.487 44.0747 236.303 47.232 238.266 51.328C240.314 55.424 241.338 60.1173 241.338 65.408C241.338 70.4427 240.357 74.88 238.394 78.72C236.517 82.56 233.871 85.5467 230.458 87.68C230.287 87.7653 230.159 87.8933 230.074 88.064C229.989 88.1493 229.989 88.2773 230.074 88.448L241.85 126.208L241.978 126.72C241.978 127.573 241.509 128 240.57 128H225.21ZM208.57 53.888C208.143 53.888 207.93 54.1013 207.93 54.528V76.416C207.93 76.8427 208.143 77.056 208.57 77.056H214.33C216.975 77.056 219.109 76.032 220.73 73.984C222.437 71.8507 223.29 69.0347 223.29 65.536C223.29 61.952 222.437 59.136 220.73 57.088C219.109 54.9547 216.975 53.888 214.33 53.888H208.57ZM251.668 128C251.241 128 250.857 127.872 250.516 127.616C250.26 127.275 250.132 126.891 250.132 126.464V39.936C250.132 39.5093 250.26 39.168 250.516 38.912C250.857 38.5707 251.241 38.4 251.668 38.4H266.644C267.071 38.4 267.412 38.5707 267.668 38.912C268.009 39.168 268.18 39.5093 268.18 39.936V126.464C268.18 126.891 268.009 127.275 267.668 127.616C267.412 127.872 267.071 128 266.644 128H251.668ZM278.48 128C277.883 128 277.499 127.829 277.328 127.488C277.157 127.147 277.157 126.72 277.328 126.208L294.736 83.584C294.821 83.328 294.821 83.072 294.736 82.816L277.328 40.192C277.243 40.0213 277.2 39.7653 277.2 39.424C277.2 38.7413 277.627 38.4 278.48 38.4H293.84C294.693 38.4 295.248 38.8267 295.504 39.68L304.08 64.256C304.165 64.512 304.293 64.64 304.464 64.64C304.635 64.64 304.763 64.512 304.848 64.256L313.424 39.68C313.68 38.8267 314.235 38.4 315.088 38.4H330.32C330.917 38.4 331.301 38.5707 331.472 38.912C331.643 39.2533 331.643 39.68 331.472 40.192L314.064 82.816C313.979 83.072 313.979 83.328 314.064 83.584L331.472 126.208C331.557 126.379 331.6 126.635 331.6 126.976C331.6 127.659 331.173 128 330.32 128H315.088C314.235 128 313.68 127.573 313.424 126.72L304.848 102.272C304.763 102.016 304.635 101.888 304.464 101.888C304.293 101.888 304.165 102.016 304.08 102.272L295.376 126.72C295.12 127.573 294.565 128 293.712 128H278.48Z" fill="#34FD50"/>
<path d="M52.592 45.424C52.9333 44.7413 53.5733 44.4 54.512 44.4H69.36C69.7867 44.4 70.128 44.5707 70.384 44.912C70.7253 45.168 70.896 45.5093 70.896 45.936V132.464C70.896 132.891 70.7253 133.275 70.384 133.616C70.128 133.872 69.7867 134 69.36 134H54.384C53.9573 134 53.5733 133.872 53.232 133.616C52.976 133.275 52.848 132.891 52.848 132.464V74.992C52.848 74.6507 52.7627 74.48 52.592 74.48C52.4213 74.48 52.2507 74.608 52.08 74.864L42.096 92.528C41.6693 93.2107 41.328 93.552 41.072 93.552C40.816 93.552 40.4747 93.2107 40.048 92.528L30.064 74.864C29.8933 74.608 29.7227 74.48 29.552 74.48C29.3813 74.48 29.296 74.6507 29.296 74.992V132.464C29.296 132.891 29.1253 133.275 28.784 133.616C28.528 133.872 28.1867 134 27.76 134H12.784C12.3573 134 11.9733 133.872 11.632 133.616C11.376 133.275 11.248 132.891 11.248 132.464V45.936C11.248 45.5093 11.376 45.168 11.632 44.912C11.9733 44.5707 12.3573 44.4 12.784 44.4H27.504C28.3573 44.4 28.9973 44.7413 29.424 45.424L40.816 65.776C41.072 66.1173 41.328 66.1173 41.584 65.776L52.592 45.424ZM119.389 134C118.365 134 117.81 133.531 117.725 132.592L115.677 120.304C115.677 119.877 115.421 119.664 114.909 119.664H98.653C98.141 119.664 97.885 119.877 97.885 120.304L95.837 132.592C95.7517 133.531 95.197 134 94.173 134H79.197C78.0877 134 77.661 133.445 77.917 132.336L96.733 45.808C96.9037 44.8693 97.4583 44.4 98.397 44.4H115.677C116.616 44.4 117.17 44.8693 117.341 45.808L136.029 132.336L136.157 132.848C136.157 133.616 135.688 134 134.749 134H119.389ZM100.445 105.072C100.445 105.499 100.616 105.712 100.957 105.712H112.477C112.904 105.712 113.074 105.499 112.989 105.072L106.973 70.128C106.888 69.872 106.76 69.744 106.589 69.744C106.418 69.744 106.29 69.872 106.205 70.128L100.445 105.072ZM185.671 44.4C186.098 44.4 186.439 44.5707 186.695 44.912C187.036 45.168 187.207 45.5093 187.207 45.936V58.352C187.207 58.7787 187.036 59.1627 186.695 59.504C186.439 59.76 186.098 59.888 185.671 59.888H169.671C169.244 59.888 169.031 60.1013 169.031 60.528V132.464C169.031 132.891 168.86 133.275 168.519 133.616C168.263 133.872 167.922 134 167.495 134H152.519C152.092 134 151.708 133.872 151.367 133.616C151.111 133.275 150.983 132.891 150.983 132.464V60.528C150.983 60.1013 150.77 59.888 150.343 59.888H134.983C134.556 59.888 134.172 59.76 133.831 59.504C133.575 59.1627 133.447 58.7787 133.447 58.352V45.936C133.447 45.5093 133.575 45.168 133.831 44.912C134.172 44.5707 134.556 44.4 134.983 44.4H185.671ZM231.21 134C230.271 134 229.674 133.573 229.418 132.72L219.562 97.392C219.391 97.0507 219.178 96.88 218.922 96.88H214.57C214.143 96.88 213.93 97.0933 213.93 97.52V132.464C213.93 132.891 213.759 133.275 213.418 133.616C213.162 133.872 212.821 134 212.394 134H197.418C196.991 134 196.607 133.872 196.266 133.616C196.01 133.275 195.882 132.891 195.882 132.464V45.936C195.882 45.5093 196.01 45.168 196.266 44.912C196.607 44.5707 196.991 44.4 197.418 44.4H223.274C227.967 44.4 232.149 45.552 235.818 47.856C239.487 50.0747 242.303 53.232 244.266 57.328C246.314 61.424 247.338 66.1173 247.338 71.408C247.338 76.4427 246.357 80.88 244.394 84.72C242.517 88.56 239.871 91.5467 236.458 93.68C236.287 93.7653 236.159 93.8933 236.074 94.064C235.989 94.1493 235.989 94.2773 236.074 94.448L247.85 132.208L247.978 132.72C247.978 133.573 247.509 134 246.57 134H231.21ZM214.57 59.888C214.143 59.888 213.93 60.1013 213.93 60.528V82.416C213.93 82.8427 214.143 83.056 214.57 83.056H220.33C222.975 83.056 225.109 82.032 226.73 79.984C228.437 77.8507 229.29 75.0347 229.29 71.536C229.29 67.952 228.437 65.136 226.73 63.088C225.109 60.9547 222.975 59.888 220.33 59.888H214.57ZM257.668 134C257.241 134 256.857 133.872 256.516 133.616C256.26 133.275 256.132 132.891 256.132 132.464V45.936C256.132 45.5093 256.26 45.168 256.516 44.912C256.857 44.5707 257.241 44.4 257.668 44.4H272.644C273.071 44.4 273.412 44.5707 273.668 44.912C274.009 45.168 274.18 45.5093 274.18 45.936V132.464C274.18 132.891 274.009 133.275 273.668 133.616C273.412 133.872 273.071 134 272.644 134H257.668ZM284.48 134C283.883 134 283.499 133.829 283.328 133.488C283.157 133.147 283.157 132.72 283.328 132.208L300.736 89.584C300.821 89.328 300.821 89.072 300.736 88.816L283.328 46.192C283.243 46.0213 283.2 45.7653 283.2 45.424C283.2 44.7413 283.627 44.4 284.48 44.4H299.84C300.693 44.4 301.248 44.8267 301.504 45.68L310.08 70.256C310.165 70.512 310.293 70.64 310.464 70.64C310.635 70.64 310.763 70.512 310.848 70.256L319.424 45.68C319.68 44.8267 320.235 44.4 321.088 44.4H336.32C336.917 44.4 337.301 44.5707 337.472 44.912C337.643 45.2533 337.643 45.68 337.472 46.192L320.064 88.816C319.979 89.072 319.979 89.328 320.064 89.584L337.472 132.208C337.557 132.379 337.6 132.635 337.6 132.976C337.6 133.659 337.173 134 336.32 134H321.088C320.235 134 319.68 133.573 319.424 132.72L310.848 108.272C310.763 108.016 310.635 107.888 310.464 107.888C310.293 107.888 310.165 108.016 310.08 108.272L301.376 132.72C301.12 133.573 300.565 134 299.712 134H284.48Z" fill="#1ACE33"/>
</svg>
